<mxfile host="Electron" agent="Mozilla/5.0 (Windows NT 10.0; Win64; x64) AppleWebKit/537.36 (KHTML, like Gecko) draw.io/27.0.5 Chrome/134.0.6998.205 Electron/35.3.0 Safari/537.36" version="27.0.5">
  <diagram name="Page-1" id="iuUOu1Q_--CMGZutt_hb">
    <mxGraphModel dx="978" dy="1545" grid="1" gridSize="10" guides="1" tooltips="1" connect="1" arrows="1" fold="1" page="1" pageScale="1" pageWidth="850" pageHeight="1100" math="0" shadow="0">
      <root>
        <mxCell id="0" />
        <mxCell id="1" parent="0" />
        <mxCell id="tTZrpe4CinT9FawzTX8t-3" value="" style="rounded=0;whiteSpace=wrap;html=1;" vertex="1" parent="1">
          <mxGeometry x="200" y="110" width="420" height="500" as="geometry" />
        </mxCell>
        <mxCell id="tTZrpe4CinT9FawzTX8t-4" value="Data Warehouse" style="rounded=0;whiteSpace=wrap;html=1;" vertex="1" parent="1">
          <mxGeometry x="350" y="60" width="120" height="30" as="geometry" />
        </mxCell>
        <mxCell id="tTZrpe4CinT9FawzTX8t-5" value="" style="rounded=0;whiteSpace=wrap;html=1;" vertex="1" parent="1">
          <mxGeometry x="663" y="110" width="125" height="500" as="geometry" />
        </mxCell>
        <mxCell id="tTZrpe4CinT9FawzTX8t-6" value="Consume" style="rounded=0;whiteSpace=wrap;html=1;" vertex="1" parent="1">
          <mxGeometry x="662.5" y="60" width="120" height="30" as="geometry" />
        </mxCell>
        <mxCell id="tTZrpe4CinT9FawzTX8t-7" value="Bronze Layer" style="rounded=0;whiteSpace=wrap;html=1;fillColor=#a0522d;fontColor=#ffffff;strokeColor=#6D1F00;" vertex="1" parent="1">
          <mxGeometry x="220" y="130" width="120" height="60" as="geometry" />
        </mxCell>
        <mxCell id="tTZrpe4CinT9FawzTX8t-11" value="" style="rounded=0;whiteSpace=wrap;html=1;" vertex="1" parent="1">
          <mxGeometry x="220" y="200" width="120" height="400" as="geometry" />
        </mxCell>
        <mxCell id="tTZrpe4CinT9FawzTX8t-12" value="Silver Layer" style="rounded=0;whiteSpace=wrap;html=1;fillColor=#d0cee2;strokeColor=#56517e;" vertex="1" parent="1">
          <mxGeometry x="350" y="130" width="120" height="60" as="geometry" />
        </mxCell>
        <mxCell id="tTZrpe4CinT9FawzTX8t-13" value="" style="rounded=0;whiteSpace=wrap;html=1;" vertex="1" parent="1">
          <mxGeometry x="350" y="200" width="120" height="400" as="geometry" />
        </mxCell>
        <mxCell id="tTZrpe4CinT9FawzTX8t-14" value="Gold Layer" style="rounded=0;whiteSpace=wrap;html=1;fillColor=#ffcd28;strokeColor=#d79b00;gradientColor=#ffa500;" vertex="1" parent="1">
          <mxGeometry x="480" y="130" width="120" height="60" as="geometry" />
        </mxCell>
        <mxCell id="tTZrpe4CinT9FawzTX8t-15" value="" style="rounded=0;whiteSpace=wrap;html=1;" vertex="1" parent="1">
          <mxGeometry x="480" y="200" width="120" height="400" as="geometry" />
        </mxCell>
        <mxCell id="tTZrpe4CinT9FawzTX8t-22" value="" style="group;fontColor=#000000;" vertex="1" connectable="0" parent="1">
          <mxGeometry x="30" y="60" width="120" height="550" as="geometry" />
        </mxCell>
        <mxCell id="tTZrpe4CinT9FawzTX8t-1" value="" style="rounded=0;whiteSpace=wrap;html=1;" vertex="1" parent="tTZrpe4CinT9FawzTX8t-22">
          <mxGeometry y="50" width="120" height="500" as="geometry" />
        </mxCell>
        <mxCell id="tTZrpe4CinT9FawzTX8t-2" value="Sorces" style="rounded=0;whiteSpace=wrap;html=1;" vertex="1" parent="tTZrpe4CinT9FawzTX8t-22">
          <mxGeometry width="120" height="30" as="geometry" />
        </mxCell>
        <mxCell id="tTZrpe4CinT9FawzTX8t-23" value="CRM" style="group;fontStyle=1" vertex="1" connectable="0" parent="tTZrpe4CinT9FawzTX8t-22">
          <mxGeometry x="35.360000000000014" y="80" width="49.28" height="40" as="geometry" />
        </mxCell>
        <mxCell id="tTZrpe4CinT9FawzTX8t-17" value="&lt;b&gt;CRM&lt;/b&gt;" style="image;aspect=fixed;html=1;points=[];align=center;fontSize=12;image=img/lib/azure2/general/Folder_Blank.svg;" vertex="1" parent="tTZrpe4CinT9FawzTX8t-23">
          <mxGeometry width="49.28" height="40" as="geometry" />
        </mxCell>
        <mxCell id="tTZrpe4CinT9FawzTX8t-19" value="" style="image;aspect=fixed;html=1;points=[];align=center;fontSize=12;image=img/lib/azure2/general/File.svg;" vertex="1" parent="tTZrpe4CinT9FawzTX8t-23">
          <mxGeometry x="30.420000000000016" y="16.760000000000005" width="18.859582863585125" height="23.235625704622326" as="geometry" />
        </mxCell>
        <mxCell id="tTZrpe4CinT9FawzTX8t-24" value="CRM" style="group;fontStyle=1" vertex="1" connectable="0" parent="tTZrpe4CinT9FawzTX8t-22">
          <mxGeometry x="35.360000000000014" y="180" width="49.28" height="40" as="geometry" />
        </mxCell>
        <mxCell id="tTZrpe4CinT9FawzTX8t-25" value="&lt;b&gt;ERP&lt;/b&gt;" style="image;aspect=fixed;html=1;points=[];align=center;fontSize=12;image=img/lib/azure2/general/Folder_Blank.svg;" vertex="1" parent="tTZrpe4CinT9FawzTX8t-24">
          <mxGeometry width="49.28" height="40" as="geometry" />
        </mxCell>
        <mxCell id="tTZrpe4CinT9FawzTX8t-26" value="" style="image;aspect=fixed;html=1;points=[];align=center;fontSize=12;image=img/lib/azure2/general/File.svg;" vertex="1" parent="tTZrpe4CinT9FawzTX8t-24">
          <mxGeometry x="30.420000000000016" y="16.760000000000005" width="18.859582863585125" height="23.235625704622326" as="geometry" />
        </mxCell>
        <mxCell id="tTZrpe4CinT9FawzTX8t-30" value="" style="shape=link;html=1;rounded=0;" edge="1" parent="tTZrpe4CinT9FawzTX8t-22">
          <mxGeometry width="100" relative="1" as="geometry">
            <mxPoint y="370" as="sourcePoint" />
            <mxPoint x="120" y="370" as="targetPoint" />
          </mxGeometry>
        </mxCell>
        <mxCell id="tTZrpe4CinT9FawzTX8t-32" value="&lt;b&gt;Object Type&lt;/b&gt;:&lt;div&gt;&lt;span style=&quot;background-color: transparent; color: light-dark(rgb(0, 0, 0), rgb(255, 255, 255));&quot;&gt;&amp;nbsp;CSV/Files&lt;/span&gt;&lt;/div&gt;&lt;div&gt;&lt;span style=&quot;background-color: transparent; color: light-dark(rgb(0, 0, 0), rgb(255, 255, 255));&quot;&gt;&lt;br&gt;&lt;/span&gt;&lt;/div&gt;&lt;div&gt;&lt;span style=&quot;background-color: transparent; color: light-dark(rgb(0, 0, 0), rgb(255, 255, 255));&quot;&gt;&lt;b&gt;Interface:&lt;/b&gt; Files in Folders&lt;/span&gt;&lt;/div&gt;" style="text;html=1;align=left;verticalAlign=top;whiteSpace=wrap;rounded=0;" vertex="1" parent="tTZrpe4CinT9FawzTX8t-22">
          <mxGeometry y="370" width="120" height="180" as="geometry" />
        </mxCell>
        <mxCell id="tTZrpe4CinT9FawzTX8t-35" value="" style="shape=datastore;whiteSpace=wrap;html=1;fillColor=#a0522d;fontColor=#ffffff;strokeColor=#6D1F00;" vertex="1" parent="1">
          <mxGeometry x="250" y="260" width="60" height="60" as="geometry" />
        </mxCell>
        <mxCell id="tTZrpe4CinT9FawzTX8t-36" value="" style="shape=datastore;whiteSpace=wrap;html=1;fillColor=#d0cee2;strokeColor=#56517e;" vertex="1" parent="1">
          <mxGeometry x="380" y="260" width="60" height="60" as="geometry" />
        </mxCell>
        <mxCell id="tTZrpe4CinT9FawzTX8t-37" value="" style="shape=datastore;whiteSpace=wrap;html=1;fillColor=#ffcd28;strokeColor=#d79b00;gradientColor=#ffa500;" vertex="1" parent="1">
          <mxGeometry x="510" y="260" width="60" height="60" as="geometry" />
        </mxCell>
        <mxCell id="tTZrpe4CinT9FawzTX8t-38" value="" style="shape=singleArrow;whiteSpace=wrap;html=1;" vertex="1" parent="1">
          <mxGeometry x="130" y="275" width="100" height="40" as="geometry" />
        </mxCell>
        <mxCell id="tTZrpe4CinT9FawzTX8t-39" value="" style="shape=singleArrow;whiteSpace=wrap;html=1;" vertex="1" parent="1">
          <mxGeometry x="320" y="280" width="50" height="30" as="geometry" />
        </mxCell>
        <mxCell id="tTZrpe4CinT9FawzTX8t-40" value="" style="shape=singleArrow;whiteSpace=wrap;html=1;" vertex="1" parent="1">
          <mxGeometry x="450" y="280" width="50" height="30" as="geometry" />
        </mxCell>
        <mxCell id="tTZrpe4CinT9FawzTX8t-42" value="" style="shape=singleArrow;whiteSpace=wrap;html=1;" vertex="1" parent="1">
          <mxGeometry x="580" y="275" width="100" height="40" as="geometry" />
        </mxCell>
        <mxCell id="tTZrpe4CinT9FawzTX8t-43" value="RAW Data" style="text;html=1;align=center;verticalAlign=middle;whiteSpace=wrap;rounded=0;" vertex="1" parent="1">
          <mxGeometry x="250" y="330" width="60" height="30" as="geometry" />
        </mxCell>
        <mxCell id="tTZrpe4CinT9FawzTX8t-44" value="Cleaned Standardized Data" style="text;html=1;align=center;verticalAlign=middle;whiteSpace=wrap;rounded=0;" vertex="1" parent="1">
          <mxGeometry x="380" y="330" width="60" height="30" as="geometry" />
        </mxCell>
        <mxCell id="tTZrpe4CinT9FawzTX8t-45" value="Business Ready Data" style="text;html=1;align=center;verticalAlign=middle;whiteSpace=wrap;rounded=0;" vertex="1" parent="1">
          <mxGeometry x="510" y="330" width="60" height="30" as="geometry" />
        </mxCell>
        <mxCell id="tTZrpe4CinT9FawzTX8t-46" value="" style="shape=link;html=1;rounded=0;" edge="1" parent="1">
          <mxGeometry width="100" relative="1" as="geometry">
            <mxPoint x="220" y="370" as="sourcePoint" />
            <mxPoint x="340" y="370" as="targetPoint" />
          </mxGeometry>
        </mxCell>
        <mxCell id="tTZrpe4CinT9FawzTX8t-47" value="" style="shape=link;html=1;rounded=0;" edge="1" parent="1">
          <mxGeometry width="100" relative="1" as="geometry">
            <mxPoint x="350" y="370" as="sourcePoint" />
            <mxPoint x="470" y="370" as="targetPoint" />
          </mxGeometry>
        </mxCell>
        <mxCell id="tTZrpe4CinT9FawzTX8t-48" value="" style="shape=link;html=1;rounded=0;" edge="1" parent="1">
          <mxGeometry width="100" relative="1" as="geometry">
            <mxPoint x="480" y="370" as="sourcePoint" />
            <mxPoint x="600" y="370" as="targetPoint" />
          </mxGeometry>
        </mxCell>
        <mxCell id="tTZrpe4CinT9FawzTX8t-50" value="&lt;b&gt;Object Type&lt;/b&gt;:&amp;nbsp;&lt;span style=&quot;background-color: transparent; color: light-dark(rgb(0, 0, 0), rgb(255, 255, 255));&quot;&gt;Table&lt;/span&gt;&lt;div&gt;&lt;br&gt;&lt;div&gt;&lt;span style=&quot;background-color: transparent; color: light-dark(rgb(0, 0, 0), rgb(255, 255, 255));&quot;&gt;&lt;b&gt;Load:&amp;nbsp;&lt;/b&gt;&lt;/span&gt;&lt;/div&gt;&lt;div&gt;&lt;ul&gt;&lt;li&gt;&lt;span style=&quot;background-color: transparent; color: light-dark(rgb(0, 0, 0), rgb(255, 255, 255));&quot;&gt;Batch processing&lt;/span&gt;&lt;/li&gt;&lt;li&gt;&lt;span style=&quot;background-color: transparent; color: light-dark(rgb(0, 0, 0), rgb(255, 255, 255));&quot;&gt;Full Load (Trunc and insert)&lt;/span&gt;&lt;/li&gt;&lt;/ul&gt;&lt;/div&gt;&lt;div&gt;&lt;b&gt;No Transformations&lt;/b&gt;&lt;/div&gt;&lt;div&gt;&lt;b&gt;&lt;br&gt;&lt;/b&gt;&lt;/div&gt;&lt;div&gt;&lt;b&gt;Data Model: &lt;/b&gt;None&amp;nbsp;&lt;/div&gt;&lt;/div&gt;" style="text;html=1;align=left;verticalAlign=top;whiteSpace=wrap;rounded=0;fontSize=9;" vertex="1" parent="1">
          <mxGeometry x="220" y="370" width="120" height="230" as="geometry" />
        </mxCell>
        <mxCell id="tTZrpe4CinT9FawzTX8t-51" value="&lt;b&gt;Object Type&lt;/b&gt;:&amp;nbsp;&lt;span style=&quot;background-color: transparent; color: light-dark(rgb(0, 0, 0), rgb(255, 255, 255));&quot;&gt;Table&lt;/span&gt;&lt;div&gt;&lt;br&gt;&lt;div&gt;&lt;span style=&quot;background-color: transparent; color: light-dark(rgb(0, 0, 0), rgb(255, 255, 255));&quot;&gt;&lt;b&gt;Load:&amp;nbsp;&lt;/b&gt;&lt;/span&gt;&lt;/div&gt;&lt;div&gt;&lt;ul&gt;&lt;li&gt;&lt;span style=&quot;background-color: transparent; color: light-dark(rgb(0, 0, 0), rgb(255, 255, 255));&quot;&gt;Batch processing&lt;/span&gt;&lt;/li&gt;&lt;li&gt;&lt;span style=&quot;background-color: transparent; color: light-dark(rgb(0, 0, 0), rgb(255, 255, 255));&quot;&gt;Full Load (Trunc and insert)&lt;/span&gt;&lt;/li&gt;&lt;/ul&gt;&lt;/div&gt;&lt;div&gt;&lt;b&gt;Transformations:&lt;/b&gt;&lt;/div&gt;&lt;div&gt;&lt;ul&gt;&lt;li&gt;Data Cleaning&lt;/li&gt;&lt;li&gt;Data standrization&lt;/li&gt;&lt;li&gt;Data Normaliazation&lt;/li&gt;&lt;li&gt;Derived Columns&lt;/li&gt;&lt;li&gt;Data Enrichement&lt;/li&gt;&lt;/ul&gt;&lt;/div&gt;&lt;div&gt;&lt;b&gt;&lt;br&gt;&lt;/b&gt;&lt;/div&gt;&lt;div&gt;&lt;b&gt;&lt;br&gt;&lt;/b&gt;&lt;/div&gt;&lt;div&gt;&lt;b&gt;Data Model: &lt;/b&gt;None&amp;nbsp;&lt;/div&gt;&lt;/div&gt;" style="text;html=1;align=left;verticalAlign=top;whiteSpace=wrap;rounded=0;spacing=2;fontSize=9;" vertex="1" parent="1">
          <mxGeometry x="350" y="370" width="120" height="230" as="geometry" />
        </mxCell>
        <mxCell id="tTZrpe4CinT9FawzTX8t-52" value="&lt;b&gt;Object Type&lt;/b&gt;:&amp;nbsp;&lt;span style=&quot;background-color: transparent; color: light-dark(rgb(0, 0, 0), rgb(255, 255, 255));&quot;&gt;Table&lt;/span&gt;&lt;div&gt;&lt;br&gt;&lt;div&gt;&lt;span style=&quot;background-color: transparent; color: light-dark(rgb(0, 0, 0), rgb(255, 255, 255));&quot;&gt;&lt;b&gt;&amp;nbsp;No Load&lt;/b&gt;&lt;/span&gt;&lt;/div&gt;&lt;div&gt;&lt;b&gt;Transformations:&lt;/b&gt;&lt;/div&gt;&lt;div&gt;&lt;ul&gt;&lt;li&gt;Data Integration&lt;/li&gt;&lt;li&gt;&lt;span style=&quot;background-color: transparent; color: light-dark(rgb(0, 0, 0), rgb(255, 255, 255));&quot;&gt;Aggregations&amp;nbsp;&amp;nbsp;&lt;/span&gt;&lt;/li&gt;&lt;li&gt;&lt;span style=&quot;background-color: transparent; color: light-dark(rgb(0, 0, 0), rgb(255, 255, 255));&quot;&gt;Business Logics&amp;nbsp;&lt;/span&gt;&lt;/li&gt;&lt;/ul&gt;&lt;/div&gt;&lt;div&gt;&lt;b&gt;&lt;br&gt;&lt;/b&gt;&lt;/div&gt;&lt;div&gt;&lt;b&gt;&lt;br&gt;&lt;/b&gt;&lt;/div&gt;&lt;div&gt;&lt;b&gt;Data Model:&amp;nbsp;&lt;/b&gt;&lt;/div&gt;&lt;/div&gt;&lt;div&gt;&lt;ul&gt;&lt;li&gt;&lt;b&gt;Star Schema&lt;/b&gt;&lt;/li&gt;&lt;li&gt;&lt;b&gt;Flat Table&lt;/b&gt;&lt;/li&gt;&lt;li&gt;&lt;b&gt;Aggregated Table&lt;/b&gt;&lt;/li&gt;&lt;/ul&gt;&lt;/div&gt;" style="text;html=1;align=left;verticalAlign=top;whiteSpace=wrap;rounded=0;spacing=2;fontSize=9;" vertex="1" parent="1">
          <mxGeometry x="480" y="370" width="120" height="230" as="geometry" />
        </mxCell>
        <mxCell id="tTZrpe4CinT9FawzTX8t-53" value="BI" style="image;aspect=fixed;html=1;points=[];align=center;fontSize=12;image=img/lib/azure2/power_platform/PowerBI.svg;" vertex="1" parent="1">
          <mxGeometry x="700" y="150" width="51" height="68" as="geometry" />
        </mxCell>
        <mxCell id="tTZrpe4CinT9FawzTX8t-54" value="Reporting" style="verticalLabelPosition=bottom;sketch=0;aspect=fixed;html=1;verticalAlign=top;strokeColor=none;align=center;outlineConnect=0;shape=mxgraph.citrix.reporting;" vertex="1" parent="1">
          <mxGeometry x="694.27" y="246" width="61.5" height="69" as="geometry" />
        </mxCell>
        <mxCell id="tTZrpe4CinT9FawzTX8t-56" value="" style="sketch=0;pointerEvents=1;shadow=0;dashed=0;html=1;strokeColor=none;fillColor=#005F4B;labelPosition=center;verticalLabelPosition=bottom;verticalAlign=top;align=center;outlineConnect=0;shape=mxgraph.veeam2.sql_server;" vertex="1" parent="1">
          <mxGeometry x="250" y="49" width="40" height="52" as="geometry" />
        </mxCell>
      </root>
    </mxGraphModel>
  </diagram>
</mxfile>
